<svg xmlns="http://www.w3.org/2000/svg" width="128.531" height="29.781" viewBox="0 0 128.531 29.781"><defs><style>.cls-1{fill:#7f8082;fill-rule:evenodd}</style></defs><path class="cls-1" d="M12.27.129l-.35 3.177L14.32.13h1.155l-.215 3.176L17.519.13h1.231l-3.446 4.72h-1.2l.266-3.439-2.581 3.439h-1.163l.418-4.719h1.226zm10.071 0h1.131l.233 4.721h-1.312l-.022-1h-2.082l-.828 1h-1.272zm-.013 2.761l-.038-1.457-1.207 1.457h1.245zm5.279.988h2.425l-.4.97H26.03L27.95.129h1.18zm6.256 0h2.425l-.4.97h-3.6L34.205.129h1.182zm6.6-3.748h2.787a1.03 1.03 0 0 1 1.084 1.6 2.528 2.528 0 0 1-2.4 1.631h-1.606l-.602 1.489h-1.184zm.26 2.266h1.086a1.174 1.174 0 0 0 1.335-.646c.223-.537-.032-.657-.731-.657H41.25zM48.909.13h1.13l.23 4.72h-1.313l-.021-1h-2.078l-.83 1H44.75zm-.016 2.76l-.043-1.457-1.2 1.457h1.246zm5.62-2.761h2.794a1.029 1.029 0 0 1 1.082 1.6 2.523 2.523 0 0 1-2.4 1.631h-1.614l-.6 1.484h-1.184zm.262 2.266h1.085a1.175 1.175 0 0 0 1.338-.645c.219-.537-.032-.657-.734-.657h-1.161zM65.961.129l-.395.966h-3.009l-.317.787h2.676l-.392.968H61.85l-.418 1.028h3.008l-.394.97H59.85L61.767.129h4.19zm2.806 0h2.9c1.228 0 1.677.376 1.319 1.265a2.106 2.106 0 0 1-1.267 1.2c.424.209.374.467.183 1.006a2.021 2.021 0 0 0-.252 1.25h-1.33a.645.645 0 0 1 .055-.367l.132-.324c.323-.8.3-1.046-.4-1.046h-1.368l-.7 1.737H66.85zm.365 2.014h1.338a1.073 1.073 0 0 0 1.191-.557c.181-.449-.135-.491-.818-.491h-1.287zm15.5-2.014l-.4.966h-2.845l-.359.892h2.595l-.391.968h-2.6l-.763 1.895h-1.183l1.92-4.719h4.026zm3.763 0h1.13l.235 4.721h-1.31l-.021-1h-2.081l-.827 1h-1.274zm-.01 2.761l-.041-1.457-1.209 1.457h1.25zm8.8-1.041c.079-.577-.272-.875-1.052-.875a2.3 2.3 0 0 0-2.143 1.513c-.382.942-.03 1.514.912 1.514a1.978 1.978 0 0 0 1.825-.99h1.293a3.9 3.9 0 0 1-3.511 1.958c-1.736 0-2.424-.987-1.819-2.482A4.076 4.076 0 0 1 96.526.006c1.552 0 2.262.776 1.947 1.843h-1.288zm8.587-1.72l-.392.966h-1.62l-1.519 3.755h-1.183l1.524-3.753h-1.617l.393-.966h4.417zm6.85 2.358a4.062 4.062 0 0 1-3.827 2.482c-1.735 0-2.425-.987-1.819-2.482a4.075 4.075 0 0 1 3.837-2.481c1.737 0 2.421.986 1.812 2.481zm-4.345 0c-.383.942-.03 1.514.912 1.514a2.3 2.3 0 0 0 2.136-1.514c.385-.948.035-1.513-.907-1.513a2.3 2.3 0 0 0-2.138 1.513zM116.31.129h2.9c1.226 0 1.676.376 1.315 1.265a2.09 2.09 0 0 1-1.267 1.2c.426.209.378.467.184 1.006a2.094 2.094 0 0 0-.255 1.25h-1.323a.638.638 0 0 1 .05-.367l.133-.324c.323-.8.3-1.046-.4-1.046h-1.365l-.703 1.737h-1.183zm.366 2.014h1.338a1.066 1.066 0 0 0 1.187-.557c.183-.449-.132-.491-.815-.491H117.1zm8-2.014l.492 1.684 1.853-1.684h1.494l-3.2 2.7-.808 2.021h-1.185l.82-2.016-.961-2.7h1.5zM17.904 14.769h3.128c3.027 0 5.9.358 4.059 4.992-1.8 4.528-5.485 4.953-8.279 4.953h-3.126zm-9.894-5l-8.016 20h17.888c13.647 0 18.686-5.914 20.269-9.886 1.749-4.415.828-10.114-12.355-10.114H8.011zm71.343 0h18.364l-.167 11.148 8.676-11.151h18.524l-8.015 20h-11.8l6.117-15.282-12.013 15.282H89.026l.224-15.282-6.122 15.282H71.334zm-6.615 4.991l1.9-4.991H45.756l-8.02 20h28.88l1.9-5.013H51.429l1.288-3h16.96l1.9-4.032H54.489l1.165-2.963h17.084z"/></svg>