<svg xmlns="http://www.w3.org/2000/svg" width="14.157" height="22.87" viewBox="0 0 14.157 22.87">
  <defs>
    <style>
      .cls-1 {
        fill-rule: evenodd;
      }
    </style>
  </defs>
  <path class="cls-1" d="M349.8,1886.84l0.4-.34,0.051-.05c0.089-.08.185-0.16,0.282-0.24l9.326-8.04a1.793,1.793,0,0,1,2.565.04l0.248,0.26a1.856,1.856,0,0,1-.044,2.6l-6.517,7.91,6.528,8.24a1.848,1.848,0,0,1-.134,2.59l-0.266.24a1.8,1.8,0,0,1-2.562-.13l-9.481-9.02c-0.037-.03-0.076-0.06-0.109-0.09l-0.346-.37A2.566,2.566,0,0,1,349.8,1886.84Z" transform="translate(-349.031 -1877.66)"/>
</svg>
