<svg xmlns="http://www.w3.org/2000/svg" width="128.531" height="29.781" viewBox="0 0 128.531 29.781">
  <defs>
    <style>
      .cls-1 {
        fill: #7f8082;
        fill-rule: evenodd;
      }
    </style>
  </defs>
  <path class="cls-1" d="M65.02,1.379L64.67,4.556l2.4-3.176h1.155L68.01,4.556l2.259-3.176H71.5L68.054,6.1h-1.2l0.266-3.439L64.539,6.1H63.376l0.418-4.719H65.02Zm10.071,0h1.131L76.455,6.1H75.143l-0.022-1H73.039l-0.828,1H70.939ZM75.078,4.14L75.04,2.683,73.833,4.14h1.245Zm5.279,0.988h2.425l-0.4.97H78.78L80.7,1.379H81.88Zm6.256,0h2.425l-0.4.97h-3.6l1.917-4.719h1.182Zm6.6-3.748H96a1.03,1.03,0,0,1,1.084,1.6,2.528,2.528,0,0,1-2.4,1.631H93.078L92.476,6.1H91.292Zm0.26,2.266h1.086A1.174,1.174,0,0,0,95.894,3c0.223-.537-0.032-0.657-0.731-0.657H94Zm8.186-2.266h1.13L103.019,6.1h-1.313l-0.021-1H99.607l-0.83,1H97.5ZM101.643,4.14L101.6,2.683,100.4,4.14h1.246Zm5.62-2.761h2.794a1.029,1.029,0,0,1,1.082,1.6,2.523,2.523,0,0,1-2.4,1.631h-1.614l-0.6,1.484h-1.184Zm0.262,2.266h1.085A1.175,1.175,0,0,0,109.948,3c0.219-.537-0.032-0.657-0.734-0.657h-1.161Zm11.186-2.266-0.395.966h-3.009l-0.317.787h2.676l-0.392.968H114.6l-0.418,1.028h3.008l-0.394.97H112.6l1.917-4.719h4.19Zm2.806,0h2.9c1.228,0,1.677.376,1.319,1.265a2.106,2.106,0,0,1-1.267,1.2c0.424,0.209.374,0.467,0.183,1.006A2.021,2.021,0,0,0,124.4,6.1h-1.33a0.645,0.645,0,0,1,.055-0.367l0.132-.324c0.323-.8.3-1.046-0.4-1.046h-1.368l-0.7,1.737H119.6Zm0.365,2.014h1.338a1.073,1.073,0,0,0,1.191-.557c0.181-.449-0.135-0.491-0.818-0.491h-1.287Zm15.5-2.014-0.4.966h-2.845l-0.359.892h2.595l-0.391.968h-2.6L132.619,6.1h-1.183l1.92-4.719h4.026Zm3.763,0h1.13L142.51,6.1H141.2l-0.021-1h-2.081l-0.827,1h-1.274Zm-0.01,2.761-0.041-1.457L139.885,4.14h1.25Zm8.8-1.041c0.079-.577-0.272-0.875-1.052-0.875a2.3,2.3,0,0,0-2.143,1.513c-0.382.942-.03,1.514,0.912,1.514a1.978,1.978,0,0,0,1.825-.99h1.293a3.9,3.9,0,0,1-3.511,1.958c-1.736,0-2.424-.987-1.819-2.482a4.076,4.076,0,0,1,3.836-2.481c1.552,0,2.262.776,1.947,1.843h-1.288Zm8.587-1.72-0.392.966h-1.62L154.991,6.1h-1.183l1.524-3.753h-1.617l0.393-.966h4.417Zm6.85,2.358a4.062,4.062,0,0,1-3.827,2.482c-1.735,0-2.425-.987-1.819-2.482a4.075,4.075,0,0,1,3.837-2.481C165.3,1.256,165.984,2.242,165.375,3.737Zm-4.345,0c-0.383.942-.03,1.514,0.912,1.514a2.3,2.3,0,0,0,2.136-1.514c0.385-.948.035-1.513-0.907-1.513A2.3,2.3,0,0,0,161.03,3.737Zm8.033-2.358h2.9c1.226,0,1.676.376,1.315,1.265a2.09,2.09,0,0,1-1.267,1.2c0.426,0.209.378,0.467,0.184,1.006a2.094,2.094,0,0,0-.255,1.25h-1.323a0.638,0.638,0,0,1,.05-0.367l0.133-.324c0.323-.8.3-1.046-0.4-1.046h-1.365L168.329,6.1h-1.183Zm0.366,2.014h1.338a1.066,1.066,0,0,0,1.187-.557c0.183-.449-0.132-0.491-0.815-0.491h-1.286Zm8-2.014,0.492,1.684,1.853-1.684h1.494l-3.2,2.7L177.257,6.1h-1.185l0.82-2.016-0.961-2.7h1.5ZM70.654,16.019h3.128c3.027,0,5.9.358,4.059,4.992-1.8,4.528-5.485,4.953-8.279,4.953H66.436Zm-9.894-5-8.016,20H70.632c13.647,0,18.686-5.914,20.269-9.886,1.749-4.415.828-10.114-12.355-10.114H60.761Zm71.343,0h18.364L150.3,22.167l8.676-11.151H177.5l-8.015,20h-11.8l6.117-15.282L151.789,31.016H141.776L142,15.734l-6.122,15.282H124.084Zm-6.615,4.991,1.9-4.991H98.506l-8.02,20h28.88l1.9-5.013H104.179l1.288-3h16.96l1.9-4.032H107.239l1.165-2.963h17.084Z" transform="translate(-52.75 -1.25)"/>
</svg>
